<svg width="118" height="45" viewBox="0 0 118 45" fill="none" xmlns="http://www.w3.org/2000/svg">
<path d="M8.13047 7.10938C14.5523 7.08594 18.4781 10.6719 18.4781 16.5781C18.4781 22.4375 14.5523 26 8.13047 26H1.96641V7.12109L8.13047 7.10938ZM8.04844 21.2773C11.4 21.2773 13.4508 19.4961 13.4508 16.5664C13.4508 13.6016 11.3883 11.7969 8.00156 11.7969H6.85313V21.2773H8.04844ZM33.0197 7.10938H38.0236V26H33.0197V18.8867H27.4064V26H22.3908V7.10938H27.4064V14.1992H33.0197V7.10938ZM58.7058 26H52.8347L47.7839 17.7969V26H42.7683L42.7448 7.10938H49.9167C53.9948 7.10938 56.9128 9.86328 56.9128 13.25C56.9128 15.6055 55.4948 17.5742 53.6433 18.418L58.7058 26ZM47.7605 11.6211V15.4062L49.8113 15.418C50.8777 15.4297 51.8503 14.6797 51.8503 13.5195C51.8503 12.3477 50.8659 11.6211 49.8113 11.6211H47.7605ZM68.5716 26.5273C64.2473 26.5273 60.7317 23.4688 60.7317 19.1328V7.10938H65.7825V19.1211C65.7825 20.6914 67.1302 21.7344 68.5598 21.7344C69.9778 21.7344 71.3606 20.668 71.3606 19.1211V7.10938H76.4114V19.1328C76.4114 23.4688 72.8958 26.5273 68.5716 26.5273ZM93.7303 7.10938H99.2264L90.5194 26.1992H88.2459L79.5741 7.10938H84.9998L89.3592 17.3398L93.7303 7.10938ZM110.932 26L109.983 23.7969H102.928L101.967 26H96.4828L105.26 6.875H107.639L116.428 26H110.932ZM104.51 20.1289H108.389L106.455 15.6523L104.51 20.1289Z" fill="white"/>
<path d="M7.98242 41.7136L7.33789 40.2781H2.86719L2.22266 41.7136H0.617188L5.05859 32.075H5.14648L9.58789 41.7136H7.98242ZM3.44141 39.0066H6.76367L5.10547 35.3152L3.44141 39.0066ZM13.0684 41.8718C11.5156 41.8718 10.3379 41.1453 9.79883 40.0554L10.9707 39.2175C11.3926 39.9558 12.1777 40.3777 13.0859 40.3777C14.1465 40.3777 14.9492 39.8679 14.9492 39.1472C14.9492 38.2742 13.707 37.7468 12.6055 37.2722C11.498 36.78 10.2676 36.2058 10.2676 34.7234C10.2676 33.1765 11.6094 32.0984 13.3086 32.0984C14.6562 32.0984 15.6641 32.7488 16.0508 33.7859L14.9492 34.5476C14.6562 33.9089 14.0059 33.5515 13.3203 33.5515C12.4531 33.5515 11.7617 34.0906 11.7617 34.7585C11.7617 35.4968 12.6348 35.7605 13.7832 36.2527C15.2773 36.9089 16.4375 37.6296 16.4375 39.1179C16.4375 40.7937 14.9844 41.8718 13.0684 41.8718ZM23.6328 32.2683V33.739H21.1016V41.7136H19.6133V33.739H17.082V32.2683H23.6328ZM31.8301 41.7136H30.0078L27.4648 38.0574H26.3047V41.7136H24.8223L24.8164 32.2683H27.752C29.5098 32.2683 30.9512 33.6218 30.9512 35.3035C30.9512 36.5222 30.166 37.5828 29.082 37.9343L31.8301 41.7136ZM26.2988 36.8269H27.7871C28.6777 36.8328 29.4219 36.1121 29.4219 35.2683C29.4219 34.3894 28.666 33.739 27.7871 33.739H26.2988V36.8269ZM37.2559 41.866C34.5723 41.866 32.3809 39.6746 32.3809 37.0027C32.3809 34.3074 34.5723 32.1042 37.2617 32.1042C39.9453 32.1042 42.1484 34.3074 42.1484 37.0027C42.1484 39.6746 39.9453 41.866 37.2559 41.866ZM37.2559 40.366C39.1191 40.366 40.6484 38.8484 40.6484 36.991C40.6484 35.1218 39.1191 33.5984 37.2559 33.5984C35.3926 33.5984 33.875 35.1218 33.875 36.991C33.875 38.8484 35.3926 40.366 37.2559 40.366ZM49.6133 32.2449H51.1016V41.8777H51.0312L44.9902 35.5671V41.7253H43.5078V32.1042H43.584L49.6133 38.4031V32.2449ZM57.3418 41.866C54.6582 41.866 52.4668 39.6746 52.4668 37.0027C52.4668 34.3074 54.6582 32.1042 57.3477 32.1042C60.0312 32.1042 62.2344 34.3074 62.2344 37.0027C62.2344 39.6746 60.0312 41.866 57.3418 41.866ZM57.3418 40.366C59.2051 40.366 60.7344 38.8484 60.7344 36.991C60.7344 35.1218 59.2051 33.5984 57.3418 33.5984C55.4785 33.5984 53.9609 35.1218 53.9609 36.991C53.9609 38.8484 55.4785 40.366 57.3418 40.366ZM72.7344 32.0632H72.8457V41.7136H71.3633V36.4753L68.2285 41.5554H68.2168L65.0762 36.4695V41.7136H63.5938V32.0632H63.7051L68.2227 38.9304L72.7344 32.0632ZM77.0293 41.7136V37.6765L73.8945 32.2683H75.5645L77.7617 36.03L79.9648 32.2683H81.6348L78.5 37.6765V41.7136H77.0293ZM90.6465 41.866C87.9688 41.866 85.748 39.6628 85.748 36.9968C85.748 34.3367 87.9688 32.1042 90.623 32.1042C91.8477 32.1218 92.9785 32.6433 93.9043 33.5457L93.043 34.7117C92.3809 34.0496 91.5195 33.6101 90.5938 33.6101C88.8828 33.6101 87.248 35.1101 87.248 37.0027C87.248 38.907 88.9062 40.3777 90.5996 40.3777C91.5664 40.3777 92.3984 39.8972 93.0488 39.2527L93.9043 40.448C93.0898 41.2507 92.0527 41.866 90.6465 41.866ZM96.5645 40.2371H100.777V41.7136H95.082V32.2683H96.5645V40.2371ZM105.441 41.8894C103.432 41.8894 101.873 40.3015 101.873 38.1335V32.2683H103.361V38.1277C103.361 39.4343 104.281 40.3894 105.436 40.3894C106.59 40.3894 107.521 39.4343 107.521 38.1277V32.2683H109.016V38.1335C109.016 40.3015 107.451 41.8894 105.441 41.8894ZM114.986 36.3933C116.047 36.3933 117.242 37.366 117.242 38.8367C117.242 40.2839 116.146 41.7136 114.271 41.7136H110.738V32.2683H113.316C114.945 32.2683 116.047 33.4402 116.047 34.6941C116.047 35.7136 115.338 36.3933 114.986 36.3933ZM113.404 33.7097H112.215V36.0652L113.387 36.0593C114.119 36.0652 114.658 35.5613 114.658 34.8875C114.658 34.2136 114.072 33.7097 113.404 33.7097ZM114.137 40.2664C114.986 40.2664 115.795 39.6511 115.795 38.7371C115.795 38.0222 115.186 37.366 114.113 37.366L112.215 37.3718V40.2664H114.137Z" fill="white"/>
</svg>
